PathFileType	4	(X/Y/Z)	/Users/itak/Documents/Research/Walk-IL/dataset/trc/00227_00009.trc
DataRate	CameraRate	NumFrames	NumMarkers	Units	OrigDataRate	OrigDataStartFrame	OrigNumFrames
100.000000	100.000000	4	53	mm	100.000000	215	861
Frame#	Time	RPSI			LPSI			L3			STRN			T10			C7			CLAV			RBAK			LBAK			LSHO			LUPA			LAEL			LAOL			LWTS			LWPS			LFRA			LIFD			LHPS			LHTS			RSHO			RUPA			RAEL			RAOL			RWTS			RWPS			RFRA			RIFD			RHTS			RHPS			RBHD			LFHD			RFHD			LBHD			LHIP			RHIP			RASI			LASI			LKNE			LTHI			LANK			LTIP			LTOE			LMT1			LMT5			LHEE			RKNE			RTHI			RANK			RTIP			RTOE			RMT1			RMT5			RHEE			
		X1	Y1	Z1	X2	Y2	Z2	X3	Y3	Z3	X4	Y4	Z4	X5	Y5	Z5	X6	Y6	Z6	X7	Y7	Z7	X8	Y8	Z8	X9	Y9	Z9	X10	Y10	Z10	X11	Y11	Z11	X12	Y12	Z12	X13	Y13	Z13	X14	Y14	Z14	X15	Y15	Z15	X16	Y16	Z16	X17	Y17	Z17	X18	Y18	Z18	X19	Y19	Z19	X20	Y20	Z20	X21	Y21	Z21	X22	Y22	Z22	X23	Y23	Z23	X24	Y24	Z24	X25	Y25	Z25	X26	Y26	Z26	X27	Y27	Z27	X28	Y28	Z28	X29	Y29	Z29	X30	Y30	Z30	X31	Y31	Z31	X32	Y32	Z32	X33	Y33	Z33	X34	Y34	Z34	X35	Y35	Z35	X36	Y36	Z36	X37	Y37	Z37	X38	Y38	Z38	X39	Y39	Z39	X40	Y40	Z40	X41	Y41	Z41	X42	Y42	Z42	X43	Y43	Z43	X44	Y44	Z44	X45	Y45	Z45	X46	Y46	Z46	X47	Y47	Z47	X48	Y48	Z48	X49	Y49	Z49	X50	Y50	Z50	X51	Y51	Z51	X52	Y52	Z52	X53	Y53	Z53	

216	2.15	375.8519287109375	1049.8857421875	841.0629272460938	300.4721069335938	1046.500244140625	747.544677734375	335.6111450195312	1136.709716796875	786.0936279296875	534.1177978515625	1296.514404296875	613.958251953125	350.4527893066406	1261.182373046875	797.2731323242188	421.5084838867188	1515.397094726562	743.4591674804688	527.9959106445312	1415.700073242188	630.207275390625	403.7277221679688	1381.847290039062	855.4107666015625	326.3508911132812	1486.033203125	680.7546997070312	348.3495788574219	1484.80078125	576.37548828125	252.2999267578125	1376.311767578125	556.1130981445312	203.1195526123047	1170.179931640625	560.6209716796875	190.4343109130859	1170.118286132812	646.7008056640625	271.1807250976562	922.9475708007812	565.5170288085938	191.6955261230469	910.601806640625	538.2990112304688	190.7009429931641	1060.487182617188	551.4696044921875	244.0299987792969	729.962158203125	591.1475830078125	194.2074737548828	820.4865112304688	542.8517456054688	262.9269714355469	816.2163696289062	543.9971923828125	575.5216064453125	1459.181030273438	823.232177734375	604.7344970703125	1394.691162109375	886.2679443359375	613.3713989257812	1116.651000976562	939.5451049804688	525.5830688476562	1107.042602539062	899.3145751953125	686.3443603515625	899.3244018554688	822.620361328125	691.4987182617188	887.9832153320312	906.0032348632812	641.8087768554688	1048.29443359375	932.6986083984375	706.51611328125	706.2286987304688	812.7686767578125	731.546875	781.2316284179688	810.4603881835938	726.4147338867188	782.1251220703125	882.93017578125	531.7439575195312	1668.100708007812	735.8968505859375	560.2379760742188	1679.03662109375	510.1351013183594	644.4564819335938	1672.184204101562	563.8680419921875	442.4627380371094	1674.472290039062	626.66552734375	294.1343078613281	977.0597534179688	576.5640258789062	517.6923828125	1010.017822265625	867.1785888671875	573.6103515625	1042.648071289062	776.8851318359375	403.1835327148438	1018.631042480469	553.6361694335938	445.9661254882812	508.8346252441406	505.2537536621094	395.4394836425781	648.0552978515625	513.105224609375	228.6680908203125	116.2857513427734	701.2105712890625	336.3016967773438	324.6266784667969	591.9951782226562	410.9764404296875	47.54926681518555	614.8412475585938	391.3504333496094	63.51195526123047	689.1080322265625	304.1803894042969	60.88686370849609	615.3701171875	224.3534698486328	152.9955749511719	772.4942016601562	537.4398193359375	517.1752319335938	812.2227783203125	571.0687866210938	785.4761962890625	841.3936767578125	460.63037109375	63.51924514770508	837.6026611328125	531.6070556640625	396.4548645019531	795.4759521484375	606.6358032226562	40.6356086730957	689.7351684570312	535.7217407226562	37.08966064453125	683.3405151367188	557.1844482421875	35.97409820556641	802.4991455078125	368.1442565917969	29.55685043334961	824.3472900390625	
217	2.16	380.94189453125	1049.983032226562	839.1182250976562	304.5249938964844	1046.61962890625	746.556640625	340.4679260253906	1136.9091796875	784.6768798828125	537.0012817382812	1296.354614257812	610.1294555664062	355.5428466796875	1261.280395507812	795.8284912109375	426.2857055664062	1515.376342773438	740.9292602539062	531.214111328125	1415.553833007812	626.343017578125	409.9261779785156	1381.966918945312	853.2144165039062	330.2684326171875	1486.042602539062	679.5863037109375	350.8684997558594	1484.695922851562	574.9476318359375	254.5871887207031	1376.185913085938	555.8858032226562	205.4745330810547	1170.086547851562	560.4442749023438	194.1381683349609	1169.55859375	646.7289428710938	274.7276306152344	923.2509765625	562.792724609375	194.6847686767578	910.5963745117188	536.8917236328125	193.2955627441406	1060.385986328125	550.9183959960938	249.0653991699219	729.9134521484375	587.4628295898438	197.9051818847656	820.4598388671875	540.7446899414062	266.6482238769531	816.6174926757812	540.6720581054688	581.3338623046875	1459.122314453125	818.6753540039062	611.3502197265625	1394.699340820312	881.3605346679688	620.6000366210938	1116.736450195312	934.9260864257812	532.1712036132812	1107.190063476562	895.8321533203125	691.6481323242188	899.2341918945312	817.1073608398438	697.9811401367188	887.9473876953125	900.4205322265625	648.8224487304688	1048.334228515625	927.72607421875	711.4917602539062	706.1332397460938	807.0772705078125	736.4898681640625	781.0897827148438	804.367919921875	732.423095703125	782.0265502929688	876.881591796875	536.5423583984375	1668.048217773438	731.8199462890625	562.136474609375	1678.82763671875	505.6894836425781	647.0240478515625	1671.951293945312	558.3474731445312	445.7182922363281	1674.395874023438	623.6939697265625	296.2901000976562	977.5552978515625	575.6179809570312	523.02490234375	1009.814270019531	863.8873291015625	578.0458984375	1042.414794921875	772.8870239257812	405.1624450683594	1018.990234375	551.5841064453125	451.016845703125	511.0946350097656	498.955322265625	398.8249816894531	649.7752685546875	508.4249572753906	246.0201263427734	109.6958847045898	691.4742431640625	346.6187438964844	322.7911071777344	584.4576416015625	428.4967346191406	47.44095230102539	600.6671752929688	409.8161315917969	61.61076354980469	675.5236206054688	321.3248901367188	58.04262161254883	603.296875	241.9725799560547	145.0107269287109	763.4625854492188	538.7822875976562	516.7483520507812	811.1605834960938	574.86083984375	785.1232299804688	838.1306762695312	460.8196105957031	64.23934173583984	837.630859375	532.2694702148438	396.2239074707031	794.82763671875	606.6465454101562	40.55695724487305	689.6771850585938	535.7440185546875	37.04665756225586	683.2744140625	557.1784057617188	35.99654769897461	802.506591796875	368.0594787597656	29.64796447753906	824.348876953125	
218	2.17	386.0249938964844	1050.01953125	837.1102294921875	308.5960998535156	1046.685791015625	745.5045166015625	345.2874145507812	1137.026245117188	783.1979370117188	539.8493041992188	1296.1455078125	606.233642578125	360.6372680664062	1261.327026367188	794.2496948242188	431.030517578125	1515.31298828125	738.2926025390625	534.401123046875	1415.360717773438	622.4020385742188	416.0814208984375	1382.04345703125	850.8905029296875	334.172119140625	1485.992065429688	678.31396484375	353.3856201171875	1484.532470703125	573.43798828125	256.9065551757812	1375.985107421875	555.5658569335938	207.8893432617188	1169.91943359375	560.1696166992188	197.927001953125	1168.90673828125	646.6417846679688	278.2345275878906	923.4130249023438	560.0524291992188	197.7091522216797	910.534423828125	535.3338623046875	195.9565734863281	1060.208251953125	550.2487182617188	254.0967102050781	729.8312377929688	583.5423583984375	201.6499176025391	820.3783569335938	538.4481811523438	270.3828430175781	816.9727172851562	537.1845092773438	587.0811157226562	1459.005859375	814.0078735351562	617.8812255859375	1394.648559570312	876.3270263671875	627.7974853515625	1116.7646484375	930.1712646484375	538.7526245117188	1107.278442382812	892.2684936523438	696.792236328125	899.05078125	811.4880981445312	704.3754272460938	887.84375	894.7119750976562	655.7796020507812	1048.316772460938	922.6104125976562	716.2386474609375	705.9323120117188	801.3290405273438	741.2797241210938	780.8544921875	798.169921875	738.31201171875	781.845458984375	870.7213745117188	541.2747802734375	1667.940673828125	727.6610717773438	564.0018310546875	1678.5888671875	501.20263671875	649.533203125	1671.696044921875	552.7899169921875	448.9176940917969	1674.263671875	620.6304321289062	298.4866943359375	977.9866333007812	574.6135864257812	528.3380737304688	1009.577453613281	860.5252685546875	582.4496459960938	1042.148315429688	768.8176879882812	407.1588745117188	1019.283569335938	549.4693603515625	455.7063598632812	513.2718505859375	492.80810546875	401.9286499023438	651.3707885742188	503.9019165039062	263.6627502441406	103.0277786254883	681.221923828125	356.90380859375	320.8370971679688	576.8114013671875	445.9861450195312	47.5579948425293	585.7977905273438	428.361328125	59.8166618347168	661.2489624023438	338.5483703613281	55.31491088867188	590.6204833984375	259.9808044433594	136.817626953125	753.9241333007812	540.1478271484375	516.3087158203125	810.0731201171875	578.623291015625	784.7401733398438	834.8121948242188	461.0120849609375	64.96636199951172	837.664306640625	532.9619750976562	395.9953918457031	794.1632080078125	606.659423828125	40.46430969238281	689.6201171875	535.7672119140625	37.0079345703125	683.1976928710938	557.1754150390625	36.02584075927734	802.51904296875	367.9752197265625	29.73012924194336	824.3275756835938	
219	2.18	391.106689453125	1049.991821289062	835.0359497070312	312.6807556152344	1046.697265625	744.3753662109375	350.0592346191406	1137.064086914062	781.640869140625	542.6732788085938	1295.888427734375	602.2735595703125	365.7405090332031	1261.325317382812	792.5380249023438	435.7419128417969	1515.212280273438	735.5457763671875	537.5587158203125	1415.12255859375	618.3856811523438	422.1886291503906	1382.075561523438	848.430908203125	338.0614013671875	1485.885375976562	676.92333984375	355.9096069335938	1484.313598632812	571.8342895507812	259.2620239257812	1375.716918945312	555.1405639648438	210.364013671875	1169.682861328125	559.7971801757812	201.7957458496094	1168.179565429688	646.434326171875	281.7115478515625	923.4534912109375	557.2842407226562	200.7757568359375	910.425537109375	533.6298217773438	198.6829833984375	1059.962158203125	549.4602661132812	259.1036376953125	729.7173461914062	579.418701171875	205.4366455078125	820.250244140625	535.9791259765625	274.1239624023438	817.2822265625	533.5533447265625	592.7542724609375	1458.839721679688	809.2323608398438	624.3155517578125	1394.5419921875	871.1715087890625	634.94189453125	1116.738647460938	925.2720947265625	545.3258666992188	1107.297607421875	888.6118774414062	701.7820434570312	898.7816162109375	805.7693481445312	710.6732788085938	887.6781005859375	888.8831176757812	662.6649169921875	1048.24462890625	917.3485717773438	720.7747802734375	705.6329345703125	795.5374145507812	745.9251708984375	780.529052734375	791.8825073242188	744.0792236328125	781.5902099609375	864.4638671875	545.9417724609375	1667.777465820312	723.4201049804688	565.8505859375	1678.318603515625	496.6717224121094	651.9951782226562	1671.41162109375	547.2012939453125	452.0779113769531	1674.083251953125	617.4713745117188	300.7296752929688	978.340576171875	573.5388793945312	533.6353149414062	1009.315307617188	857.0676879882812	586.8267211914062	1041.852905273438	764.6889038085938	409.1872863769531	1019.506286621094	547.289306640625	460.0437316894531	515.3365478515625	486.8422241210938	404.7666015625	652.8186645507812	499.54248046875	281.55078125	96.37549591064453	670.452392578125	367.1156921386719	318.8041687011719	569.0672607421875	463.3406982421875	47.94639205932617	570.2589111328125	446.902099609375	58.19374465942383	646.2965087890625	355.7737426757812	52.76094055175781	577.3677978515625	278.3568115234375	128.5156860351562	743.8855590820312	541.5474243164062	515.8597412109375	808.947998046875	582.3632202148438	784.3294677734375	831.4266967773438	461.2083740234375	65.70226287841797	837.7049560546875	533.6895751953125	395.7694091796875	793.4719848632812	606.67431640625	40.35492324829102	689.561279296875	535.7908935546875	36.96855545043945	683.1128540039062	557.1761474609375	36.06341552734375	802.5382080078125	367.8917846679688	29.80654144287109	824.2890014648438	
